HIERARCHY
ROOT Hips
{
  OFFSET 0.0 0.0 0.0
  CHANNELS 6 XPOSITION YPOSITION ZPOSITION ZROTATION XROTATION YROTATION 
  JOINT LeftUpLeg
  {
    OFFSET 0.089458 -0.0866707 0.00101652
    CHANNELS 3 ZROTATION XROTATION YROTATION 
    JOINT LeftLeg
    {
      OFFSET 0.0 -0.444227 0.013727
      CHANNELS 3 ZROTATION XROTATION YROTATION 
      JOINT LeftFoot
      {
        OFFSET -0.00253549 -0.420924 -0.0146059
        CHANNELS 3 ZROTATION XROTATION YROTATION 
        End Site
        {
          OFFSET -0.0004 -0.0441509 0.084991
        }
      }
    }
  }
  JOINT Spine
  {
    OFFSET 0.0 0.118905 0.0
    CHANNELS 3 ZROTATION XROTATION YROTATION 
    JOINT Spine1
    {
      OFFSET 0.0 0.256574 0.00127663
      CHANNELS 3 ZROTATION XROTATION YROTATION 
      End Site
      {
        OFFSET -0.0029 0.2150836 0.02525291
      }
      JOINT RightArm
      {
        OFFSET -0.162727 -0.05365632 0.00102123
        CHANNELS 3 ZROTATION XROTATION YROTATION 
        JOINT RightForeArm
        {
          OFFSET -0.26364 0.00099144 -0.0142434
          CHANNELS 3 ZROTATION XROTATION YROTATION 
          End Site
          {
            OFFSET -0.220324 0.00085362 0.0102216
          }
        }
      }
      JOINT LeftArm
      {
        OFFSET 0.162727 -0.0536563199 0.00102123
        CHANNELS 3 ZROTATION XROTATION YROTATION 
        JOINT LeftForeArm
        {
          OFFSET 0.262597 0.00099144 -0.0142434
          CHANNELS 3 ZROTATION XROTATION YROTATION 
          End Site
          {
            OFFSET 0.220902 0.00085362 0.0102216
          }
        }
      }
    }
  }
  JOINT RightUpLeg
  {
    OFFSET -0.089458 -0.0866707 0.00101652
    CHANNELS 3 ZROTATION XROTATION YROTATION 
    JOINT RightLeg
    {
      OFFSET 0.0 -0.444227 0.013727
      CHANNELS 3 ZROTATION XROTATION YROTATION 
      JOINT RightFoot
      {
        OFFSET 0.00253549 -0.420924 -0.0146059
        CHANNELS 3 ZROTATION XROTATION YROTATION 
        End Site
        {
          OFFSET 0.0004 -0.0441509 0.084991
        }
      }
    }
  }
}
MOTION
Frames: 8
Frame Time: 0.033333
-21.2868121 1.00869401798 -0.9417771 -11.2419791097 2.22323660668 -93.551741854 -2.01809721104 7.09552878578 4.93679712595 0.0924854170964 19.1725441984 20.2217978587 -2.04561412222 -19.9425455744 -0.110821306717 -8.18919020162 15.1995853751 -5.6506983164 9.78457895777 0.31222352833 -8.538142005 44.8904074519 -22.9959918882 -43.6036407934 9.36237593686 37.6356673835 -0.00111124611889 -57.0178796063 -28.8831590376 -95.366325041 -10.4503977509 41.0623254787 -0.975191357806 -0.947500383529 -44.3037420135 -3.49055088642 -3.78519137339 76.8325794074 -12.3600076523 13.8146125492 -15.9389670132 0.797115679622 
-21.3048871 1.00797971798 -0.9433516 -10.9221222046 1.97843024711 -92.5454227628 -1.99750653857 8.16050169956 4.87833326797 0.145144027823 18.8819947813 19.6217384193 -2.66925735099 -20.6304275861 -0.188798701655 -8.30249706354 15.0570359121 -5.36993058396 10.7236924026 -0.10377917491 -8.31168196042 49.9013040195 -25.1995270276 -35.5762116695 9.66378962361 39.521472368 -0.590444240538 -58.2205802965 -26.9504016251 -93.2689310412 -11.8771841411 42.3859785738 0.132160758685 -1.68120165205 -42.0141225849 -4.51303767569 -2.32321286033 68.3273614755 -13.3718113853 14.1261255244 -16.0009458573 0.828189305085 
-21.3236881 1.00692541798 -0.945913 -10.7606736081 1.41042627292 -91.4129842286 -2.2061387222 9.60209167107 4.74934130352 0.129659241922 18.1900061183 19.0588676524 -2.95776048611 -21.2250040911 -0.233578035504 -8.88713564328 14.9174422134 -4.87940859588 11.994840126 -0.618905372005 -7.98755533336 54.910752587 -27.773707505 -26.2055216848 10.3323865962 41.7389649991 -2.74115768517 -60.6872553039 -24.4756652869 -90.4578778959 -13.1414103216 43.7482154076 0.828221214875 -2.46269642223 -38.4183490057 -5.04722677068 -1.67994180231 58.9684928408 -13.9728279049 13.9419716716 -15.6663997766 0.775482176003 
-21.3449721 1.00437111798 -0.9496196 -10.5954240113 0.705001080432 -90.2907636574 -2.38120308737 11.0255466366 4.7762765814 0.0855190310195 17.9545199788 18.1909657599 -3.99717653957 -22.573163905 -0.404992998587 -9.48616372406 14.6483395903 -4.16043940507 13.0537602115 -1.55612498681 -7.33667843282 60.330780901 -30.4921159645 -15.6899673443 11.6472270397 44.626294282 -6.41596167563 -63.6059795514 -21.2228525815 -86.0736477695 -13.7250662079 44.8680590729 0.219005800229 -3.09764937706 -34.2789299347 -5.12651800986 -1.382707551 50.0204805752 -14.7872502701 13.0725628685 -14.8418559249 0.619905621193 
-21.3697227 0.999204817983 -0.9543764 -10.3913524731 -0.0289255776606 -89.42322718 -2.52693520515 12.1538119252 5.05881845547 0.0606108185502 18.8197871258 17.2505272584 -5.72253355033 -24.3454323625 -0.720158177335 -9.69750002226 13.7104718012 -3.31848326674 13.1082275551 -2.0932459405 -6.34495118703 67.1010488214 -32.3439988146 -3.63333535069 13.7309376092 48.1295734394 -10.5317589643 -65.0266930497 -17.1477465717 -79.6115101731 -13.2951510496 45.0471432179 -1.89835097485 -3.57681041266 -29.9006215824 -4.99410497441 -1.24989558981 42.5565966993 -15.8889990568 12.5531594256 -14.6649147518 0.568083481856 
-21.3966387 0.993207517983 -0.9599186 -10.4074204931 -0.745938032666 -88.4174749945 -2.60159429542 13.5453058742 5.32931870604 0.243120690228 19.8484170299 16.4458046156 -6.58478901087 -25.5839198288 -0.922677234929 -9.16933856922 11.8737733154 -2.7472521349 12.0579015551 -0.97291551743 -5.52338060206 75.1519089093 -32.0902333812 10.3292984969 16.1377767444 52.2997727579 -13.5106418104 -65.3086432586 -12.3923050555 -71.9384961501 -12.4928667844 45.3627628443 -3.98939866165 -4.09167049919 -24.4858029952 -5.9834702554 -1.19410126858 35.7847031939 -16.6568250176 12.866881967 -15.1112146801 0.63491597575 
-21.4246867 0.988827217983 -0.9660302 -10.7256082707 -0.832282669472 -86.8187667665 -1.92451892366 15.3838604639 4.87659114285 0.761415668212 20.6606033619 15.7369931968 -7.16191950517 -26.6449231221 -1.09243059441 -7.15501119571 9.67484428479 -2.60525058106 10.3925281194 1.39208529401 -4.98777851169 82.7132903205 -29.7098714744 25.5203871167 18.2859241724 57.433414655 -15.0171885885 -67.0636740263 -7.86989166453 -63.7495364674 -12.4628728625 47.881907365 -4.29231627068 -3.93242378491 -18.040894551 -8.81260461906 -1.01581113313 28.8004659373 -16.3688283837 11.8413845584 -13.9553596961 0.458975211929 
-21.4531518 0.985578917983 -0.9724532 -11.0486258458 0.401478599455 -85.3637862091 0.29358050031 15.9841572523 3.05850556292 1.11305648505 24.0433655389 15.8604130075 -10.3065778726 -27.939918451 -1.75404828759 -2.7170259865 8.05854917337 -2.42250417406 7.99598464057 3.07430421736 -3.99252432697 88.2293989056 -26.301337286 40.8664254081 20.8575638194 62.5624564198 -17.2175084164 -70.7076414202 -4.5067295691 -54.2641419934 -13.7784612117 51.8317067242 -2.68344920343 -2.19016397694 -13.0602864573 -10.5663794856 -0.0356141771426 23.7970381816 -16.6068126649 7.53673381984 -10.4773650453 0.00848259469116 
